<svg width="700" height="517" viewBox="0 0 700 517" fill="none" xmlns="http://www.w3.org/2000/svg">
<g clip-path="url(#clip0_1985_55210)">
<path opacity="0.1" d="M7.53516 247.554C18.5886 290.272 41.9682 327.2 78.9148 345.1C155.722 382.301 328.944 363.115 458.225 341.091C525.099 329.7 583.879 298.265 626.578 254.025L7.53516 247.554Z" fill="#6C63FF"/>
<path opacity="0.1" d="M685.478 46.473H614.544C611.178 46.473 608.416 43.9785 608.416 40.9304C608.416 37.8822 611.178 35.3814 614.544 35.3814H626.813C623.44 35.3814 620.685 32.8869 620.685 29.8324C620.685 26.7779 623.44 24.2898 626.813 24.2898H618.057C614.684 24.2898 611.922 21.7953 611.922 18.7408C611.922 15.6863 614.684 13.1981 618.057 13.1981H655.08C646.864 9.74275 637.262 7.28643 626.195 5.99463C525.238 -5.73333 489.195 2.0238 476.481 9.99729C460.633 20.0596 443.029 27.0416 424.593 30.5769C362.307 42.2031 245.822 56.1901 140.245 26.1224C87.7717 11.1491 48.7697 36.4186 25.3965 78.6597H697.798C696.92 66.3844 694.292 55.0447 689.468 45.1239C688.326 46.0059 686.921 46.4808 685.478 46.473Z" fill="#6C63FF"/>
<path opacity="0.1" d="M1.5207 158.388C-1.20387 183.232 -0.277708 208.342 4.26974 232.918L627.055 253.529C644.198 235.749 658.764 215.652 670.327 193.827L1.5207 158.388ZM247.84 211.555H235.577C238.95 211.555 241.712 214.056 241.712 217.104C241.712 220.153 238.95 222.647 235.577 222.647H164.643C161.277 222.647 158.515 220.153 158.515 217.104C158.515 214.056 161.277 211.555 164.643 211.555H176.912C173.539 211.555 170.784 209.061 170.784 206.013C170.784 202.965 173.539 200.464 176.912 200.464H168.149C164.777 200.464 162.015 197.969 162.015 194.921C162.015 191.873 164.777 189.372 168.149 189.372H239.084C242.456 189.372 245.212 191.867 245.212 194.921C245.212 197.976 242.456 200.464 239.084 200.464H247.84C251.213 200.464 253.968 202.958 253.968 206.013C253.968 209.067 251.213 211.555 247.84 211.555Z" fill="#6C63FF"/>
<path opacity="0.1" d="M697.823 79.0415L17.8936 93.9958C9.62105 113.233 4.13569 134.983 1.60938 157.523H685.91C690.364 144.336 693.668 130.788 695.787 117.032C697.829 103.789 698.644 90.9795 697.823 79.0415ZM139.66 128.072H127.397C130.77 128.072 133.531 130.573 133.531 133.621C133.531 136.67 130.77 139.17 127.397 139.17H56.4629C53.0966 139.17 50.3348 136.67 50.3348 133.621C50.3348 130.573 53.0966 128.072 56.4629 128.072H68.7318C65.3591 128.072 62.6037 125.578 62.6037 122.53C62.6037 119.482 65.3591 116.981 68.7318 116.981H59.9692C56.5965 116.981 53.8348 114.486 53.8348 111.438C53.8348 108.39 56.5965 105.889 59.9692 105.889H130.903C134.276 105.889 137.031 108.384 137.031 111.438C137.031 114.493 134.276 116.981 130.903 116.981H139.66C143.032 116.981 145.788 119.482 145.788 122.53C145.788 125.578 143.032 128.072 139.66 128.072Z" fill="#6C63FF"/>
<path opacity="0.1" d="M330.437 508.334C487.527 508.334 614.873 496.618 614.873 482.167C614.873 467.715 487.527 456 330.437 456C173.347 456 46 467.715 46 482.167C46 496.618 173.347 508.334 330.437 508.334Z" fill="#6C63FF"/>
<g opacity="0.1">
<path opacity="0.1" d="M537.545 180.826C537.676 180.577 537.791 180.32 537.889 180.056C538.608 178.058 538.289 175.862 538.296 173.737C538.295 173.028 538.361 172.321 538.493 171.624C537.906 172.881 537.62 174.259 537.659 175.646C537.653 177.358 537.857 179.152 537.545 180.826Z" fill="black"/>
<path opacity="0.1" d="M615.995 276.934C613.354 278.9 609.44 278.385 606.774 276.444C604.108 274.503 602.485 271.455 601.359 268.356C599.952 264.602 598.909 260.363 595.701 257.952C594.55 257.086 593.156 256.52 592.03 255.654C589.484 253.707 588.212 250.494 587.295 247.414C586.118 243.532 585.189 239.542 583.477 235.877C581.765 232.211 579.08 228.8 575.376 227.127C571.915 225.568 567.918 225.669 564.336 224.403C558.163 222.227 553.6 217.041 547.472 214.597C545.51 213.77 543.65 212.72 541.93 211.466C538.913 209.385 538.112 208.208 537.666 204.536C537.03 199.025 531.43 194.221 532.302 189.028C532.16 189.309 532.034 189.598 531.926 189.894C530.017 195.494 536.381 200.565 537.017 206.439C537.431 210.111 538.29 211.288 541.281 213.369C543.001 214.622 544.861 215.673 546.823 216.5C552.951 218.943 557.514 224.136 563.687 226.306C567.269 227.579 571.266 227.47 574.727 229.029C578.431 230.703 581.091 234.12 582.828 237.779C584.565 241.438 585.494 245.415 586.646 249.316C587.582 252.396 588.81 255.61 591.381 257.557C592.532 258.423 593.926 258.989 595.052 259.854C598.234 262.266 599.303 266.504 600.71 270.259C601.868 273.345 603.49 276.399 606.157 278.334C608.823 280.268 612.737 280.79 615.377 278.824C617.064 277.551 617.923 275.61 618.489 273.53C617.986 274.872 617.123 276.049 615.995 276.934Z" fill="black"/>
<path opacity="0.1" d="M629.071 257.85C628.828 258.306 628.722 258.823 628.766 259.339C630.204 257.92 633.449 258.753 634.582 256.927C634.845 256.476 634.948 255.949 634.875 255.432C633.398 256.832 630.153 255.998 629.071 257.85Z" fill="black"/>
<path opacity="0.1" d="M619.725 268.731C619.604 269.368 619.483 270.049 619.33 270.71C623.225 271.926 627.724 268.801 628.36 264.856C626.814 267.891 622.995 269.921 619.725 268.731Z" fill="black"/>
</g>
<path opacity="0.05" d="M227.253 150.828C227.253 150.828 168.117 188.634 168.601 247.77C169.084 306.906 227.253 150.828 227.253 150.828Z" fill="black"/>
<path d="M510.542 16.7232C510.542 16.7232 456.961 13.4969 463.28 51.0417C463.28 51.0417 462.007 57.6724 468.04 60.6888C468.04 60.6888 468.135 57.9079 473.531 58.8497C475.454 59.1714 477.409 59.2654 479.354 59.1297C481.982 58.951 484.481 57.9187 486.468 56.1897C486.468 56.1897 501.531 49.9726 507.392 25.3521C507.392 25.3521 511.725 19.9813 511.553 18.6068L502.511 22.4631C502.511 22.4631 505.597 28.9857 503.147 34.4074C503.147 34.4074 502.854 22.7049 501.117 22.9531C500.767 23.0104 496.421 25.2121 496.421 25.2121C496.421 25.2121 501.734 36.5774 497.694 44.8309C497.694 44.8309 499.215 30.8311 494.728 26.033L488.365 29.7493C488.365 29.7493 494.576 41.4837 490.363 51.0607C490.363 51.0607 491.445 36.3738 487.028 30.6529L481.257 35.152C481.257 35.152 487.092 46.7208 483.535 54.6625C483.535 54.6625 483.07 37.5637 480.009 36.2719C480.009 36.2719 474.963 40.7264 474.193 42.5527C474.193 42.5527 478.189 50.9462 475.714 55.3752C475.714 55.3752 474.193 43.9845 472.946 43.9209C472.946 43.9209 467.919 51.468 467.391 56.6479C467.391 56.6479 467.613 48.9481 471.724 43.2018C471.724 43.2018 466.862 44.0354 464.031 47.1917C464.031 47.1917 464.813 41.8527 472.94 41.3882C472.94 41.3882 477.095 35.661 478.209 35.3174C478.209 35.3174 470.095 34.6365 465.176 36.8192C465.176 36.8192 469.503 31.7857 479.691 34.0702L485.418 29.4248C485.418 29.4248 474.74 27.9612 470.21 29.5775C470.21 29.5775 475.421 25.1231 486.952 28.3684L493.156 24.6585C493.156 24.6585 484.05 22.6985 478.622 23.3858C478.622 23.3858 484.349 20.2995 494.97 23.6467L499.425 21.6549C499.425 21.6549 492.749 20.344 490.796 20.1404C488.842 19.9368 488.74 19.3895 488.74 19.3895C492.979 18.7003 497.327 19.2049 501.295 20.8468C501.295 20.8468 510.701 17.315 510.542 16.7232Z" fill="#6C63FF"/>
<path d="M455.586 0.0316929C455.586 0.0316929 431.404 -1.43192 434.23 15.5332C434.23 15.5332 433.663 18.5304 436.38 19.8922C436.38 19.8922 436.419 18.6195 438.862 19.065C439.731 19.2079 440.612 19.2506 441.49 19.1923C442.679 19.1074 443.808 18.6409 444.71 17.8623C444.71 17.8623 451.513 15.0496 454.16 3.92617C454.16 3.92617 456.12 1.50167 456.069 0.878042L451.984 2.62165C451.984 2.62165 453.384 5.56795 452.283 8.01791C452.283 8.01791 452.149 2.72983 451.367 2.8571C451.207 2.8571 449.241 3.87526 449.241 3.87526C449.241 3.87526 451.647 9.01062 449.833 12.7396C449.833 12.7396 450.52 6.41431 448.497 4.24435L445.62 5.92431C445.62 5.92431 448.427 11.2315 446.524 15.5587C446.524 15.5587 447.008 8.92153 445.016 6.33794L442.407 8.3679C442.407 8.3679 445.041 13.5924 443.438 17.1814C443.438 17.1814 443.228 9.45607 441.84 8.87062C441.84 8.87062 439.562 10.8815 439.212 11.7088C439.212 11.7088 441.019 15.5269 439.899 17.5059C439.899 17.5059 439.212 12.3578 438.627 12.3387C438.627 12.3387 436.355 15.7432 436.12 18.0659C436.229 15.9044 436.903 13.8092 438.073 11.9887C436.764 12.2365 435.556 12.8626 434.599 13.7896C434.599 13.7896 434.949 11.3779 438.633 11.1679C438.633 11.1679 440.51 8.58427 441.013 8.42518C441.013 8.42518 437.348 8.11973 435.127 9.10607C435.127 9.10607 437.08 6.82793 441.688 7.83337L444.233 5.73977C444.233 5.73977 439.41 5.10342 437.36 5.80341C437.36 5.80341 439.715 3.79253 444.927 5.26251L447.727 3.58254C447.727 3.58254 443.616 2.69801 441.159 3.01619C441.159 3.01619 443.749 1.62257 448.547 3.13709L450.552 2.23347C450.552 2.23347 447.536 1.64166 446.658 1.55257C445.779 1.46348 445.722 1.21531 445.722 1.21531C447.632 0.897521 449.593 1.11787 451.386 1.85166C451.386 1.85166 455.656 0.298961 455.586 0.0316929Z" fill="#6C63FF"/>
<path d="M285.862 395.531C279.01 393.505 271.646 395.123 266.445 400.173L265.846 400.748C313.592 422.583 371.508 413.329 410.576 372.894C449.63 332.475 458.586 272.579 437.518 223.177C437.328 223.388 437.138 223.585 436.963 223.797C432.083 229.165 430.519 236.786 432.463 243.878C443.873 285.326 433.865 331.824 402.38 364.411C370.88 397.013 325.924 407.371 285.862 395.531Z" fill="white"/>
<path d="M464.708 249.503C477.712 299.994 463.7 354.234 428.124 391.055C392.416 428.012 339.848 442.468 290.932 428.798C273.049 423.793 254.48 427.71 240.629 439.247C307.983 480.861 393.103 470.065 448.783 412.437C504.434 354.839 514.881 266.787 474.746 197.092C463.656 211.533 459.902 230.843 464.708 249.503Z" fill="white"/>
<path d="M423.127 205.742C466.724 158.518 531.916 87.3715 573 38C563.459 47.5416 547.008 61.3778 529.899 75.1534C497.873 100.935 443.391 116.828 407.245 97.7751C333.959 59.1398 241.826 71.5091 180.609 134.883C119.391 198.257 107.425 293.598 144.74 369.447C163.149 406.858 147.794 463.261 122.883 496.392C109.588 514.099 96.2192 531.126 87 541L113.474 515.762L128.771 501.563C228.107 409.413 330.497 305.136 423.127 205.742ZM249.628 131.813C301.773 103.93 364.261 111.384 410.737 146.708C420.234 156.552 420.234 172.475 410.722 182.319L410.576 182.47C359.849 129.969 277.3 129.969 226.573 182.47C175.846 234.972 175.846 320.408 226.573 372.91C226.573 372.91 226.281 373.212 225.769 373.742C216.317 382.845 201.604 382.724 192.297 373.379C137.976 296.668 157.086 181.306 249.628 131.813ZM254.844 364.487C249.336 370.218 240.409 370.218 234.886 364.517L234.784 364.412C188.571 316.583 188.571 238.768 234.784 190.938C280.997 143.109 356.182 143.109 402.394 190.938C402.424 190.969 402.468 191.014 402.497 191.044C408.049 196.805 407.8 206.226 402.219 211.957C353.873 261.677 302.868 314.466 254.844 364.487Z" fill="white"/>
</g>
<defs>
<clipPath id="clip0_1985_55210">
<rect width="700" height="516.342" fill="white"/>
</clipPath>
</defs>
</svg>
