<svg width="700" height="517" viewBox="0 0 700 517" fill="none" xmlns="http://www.w3.org/2000/svg">
    <g clip-path="url(#clip0_5250_28087)">
    <path
      opacity="0.1"
      d="M7.53418 247.554C18.5876 290.272 41.9672 327.2 78.9138 345.1C155.721 382.301 328.943 363.115 458.224 341.091C525.098 329.7 583.878 298.265 626.577 254.025L7.53418 247.554Z"
      fill="#6C63FF"
    />
    <path
      opacity="0.1"
      d="M685.479 46.4727H614.544C611.178 46.4727 608.416 43.9782 608.416 40.9301C608.416 37.882 611.178 35.3811 614.544 35.3811H626.813C623.441 35.3811 620.685 32.8866 620.685 29.8321C620.685 26.7776 623.441 24.2895 626.813 24.2895H618.057C614.684 24.2895 611.923 21.795 611.923 18.7405C611.923 15.686 614.684 13.1979 618.057 13.1979H655.08C646.865 9.7425 637.262 7.28619 626.196 5.99439C525.239 -5.73358 489.196 2.02355 476.481 9.99705C460.634 20.0593 443.03 27.0413 424.593 30.5767C362.307 42.2028 245.823 56.1898 140.246 26.1222C87.7722 11.1488 48.7702 36.4184 25.397 78.6594H697.798C696.92 66.3842 694.292 55.0444 689.468 45.1237C688.326 46.0057 686.922 46.4805 685.479 46.4727Z"
      fill="#6C63FF"
    />
    <path
      opacity="0.1"
      d="M1.5207 158.388C-1.20387 183.232 -0.277708 208.341 4.26974 232.917L627.055 253.529C644.198 235.748 658.764 215.652 670.327 193.826L1.5207 158.388ZM247.84 211.555H235.577C238.95 211.555 241.712 214.056 241.712 217.104C241.712 220.152 238.95 222.647 235.577 222.647H164.643C161.277 222.647 158.515 220.152 158.515 217.104C158.515 214.056 161.277 211.555 164.643 211.555H176.912C173.539 211.555 170.784 209.061 170.784 206.013C170.784 202.964 173.539 200.464 176.912 200.464H168.149C164.777 200.464 162.015 197.969 162.015 194.921C162.015 191.873 164.777 189.372 168.149 189.372H239.084C242.456 189.372 245.212 191.866 245.212 194.921C245.212 197.975 242.456 200.464 239.084 200.464H247.84C251.213 200.464 253.968 202.958 253.968 206.013C253.968 209.067 251.213 211.555 247.84 211.555Z"
      fill="#6C63FF"
    />
    <path
      opacity="0.1"
      d="M697.823 79.0413L17.8941 93.9955C9.62154 113.232 4.13618 134.983 1.60986 157.523H685.911C690.364 144.336 693.669 130.788 695.787 117.031C697.83 103.789 698.644 90.9792 697.823 79.0413ZM139.66 128.072H127.398C130.77 128.072 133.532 130.573 133.532 133.621C133.532 136.669 130.77 139.17 127.398 139.17H56.4634C53.0971 139.17 50.3353 136.669 50.3353 133.621C50.3353 130.573 53.0971 128.072 56.4634 128.072H68.7323C65.3596 128.072 62.6042 125.578 62.6042 122.53C62.6042 119.481 65.3596 116.981 68.7323 116.981H59.9697C56.597 116.981 53.8353 114.486 53.8353 111.438C53.8353 108.39 56.597 105.889 59.9697 105.889H130.904C134.277 105.889 137.032 108.383 137.032 111.438C137.032 114.492 134.277 116.981 130.904 116.981H139.66C143.033 116.981 145.788 119.481 145.788 122.53C145.788 125.578 143.033 128.072 139.66 128.072Z"
      fill="#6C63FF"
    />
    <path
      opacity="0.1"
      d="M330.437 508.334C487.527 508.334 614.873 496.618 614.873 482.167C614.873 467.715 487.527 456 330.437 456C173.347 456 46 467.715 46 482.167C46 496.618 173.347 508.334 330.437 508.334Z"
      fill="#6C63FF"
    />
    <g opacity="0.1">
    <path
        opacity="0.1"
        d="M537.546 180.826C537.677 180.577 537.792 180.32 537.89 180.056C538.609 178.058 538.29 175.862 538.297 173.737C538.296 173.028 538.362 172.321 538.494 171.624C537.907 172.881 537.621 174.259 537.66 175.646C537.654 177.358 537.858 179.152 537.546 180.826Z"
        fill="black"
      />
    <path
        opacity="0.1"
        d="M615.995 276.934C613.354 278.9 609.441 278.385 606.774 276.444C604.108 274.503 602.485 271.455 601.359 268.356C599.953 264.602 598.909 260.363 595.702 257.952C594.55 257.086 593.157 256.52 592.03 255.654C589.485 253.707 588.212 250.494 587.296 247.414C586.118 243.532 585.189 239.542 583.478 235.877C581.766 232.211 579.08 228.8 575.377 227.127C571.915 225.568 567.919 225.669 564.336 224.403C558.163 222.227 553.601 217.041 547.473 214.597C545.511 213.77 543.651 212.72 541.93 211.466C538.914 209.385 538.112 208.208 537.667 204.536C537.03 199.025 531.43 194.221 532.302 189.028C532.16 189.309 532.035 189.598 531.927 189.894C530.018 195.494 536.381 200.565 537.017 206.439C537.431 210.111 538.29 211.288 541.281 213.369C543.002 214.622 544.862 215.673 546.824 216.5C552.952 218.943 557.514 224.136 563.687 226.306C567.27 227.579 571.266 227.47 574.728 229.029C578.431 230.703 581.091 234.12 582.829 237.779C584.566 241.438 585.495 245.415 586.647 249.316C587.582 252.396 588.81 255.61 591.381 257.557C592.533 258.423 593.927 258.989 595.053 259.854C598.235 262.266 599.304 266.504 600.71 270.259C601.868 273.345 603.491 276.399 606.157 278.334C608.823 280.268 612.737 280.79 615.378 278.824C617.064 277.551 617.923 275.61 618.49 273.53C617.986 274.872 617.123 276.049 615.995 276.934Z"
        fill="black"
      />
    <path
        opacity="0.1"
        d="M629.072 257.85C628.829 258.306 628.722 258.823 628.767 259.339C630.205 257.92 633.45 258.753 634.583 256.927C634.846 256.476 634.949 255.949 634.876 255.432C633.399 256.832 630.154 255.998 629.072 257.85Z"
        fill="black"
      />
    <path
        opacity="0.1"
        d="M619.724 268.731C619.603 269.368 619.482 270.049 619.33 270.71C623.224 271.926 627.723 268.801 628.359 264.856C626.813 267.891 622.995 269.921 619.724 268.731Z"
        fill="black"
      />
    </g>
    <path
      opacity="0.05"
      d="M227.254 150.828C227.254 150.828 168.118 188.634 168.602 247.77C169.085 306.906 227.254 150.828 227.254 150.828Z"
      fill="black"
    />
    <path
      d="M510.541 16.7232C510.541 16.7232 456.96 13.4969 463.279 51.0417C463.279 51.0417 462.007 57.6724 468.039 60.6888C468.039 60.6888 468.135 57.9079 473.531 58.8497C475.454 59.1714 477.408 59.2654 479.353 59.1297C481.982 58.951 484.48 57.9187 486.468 56.1897C486.468 56.1897 501.53 49.9726 507.391 25.3521C507.391 25.3521 511.725 19.9813 511.553 18.6068L502.51 22.4631C502.51 22.4631 505.597 28.9857 503.147 34.4074C503.147 34.4074 502.854 22.7049 501.117 22.9531C500.767 23.0104 496.42 25.2121 496.42 25.2121C496.42 25.2121 501.734 36.5774 497.693 44.8309C497.693 44.8309 499.214 30.8311 494.728 26.033L488.364 29.7493C488.364 29.7493 494.575 41.4837 490.362 51.0607C490.362 51.0607 491.444 36.3738 487.028 30.6529L481.256 35.152C481.256 35.152 487.092 46.7208 483.534 54.6625C483.534 54.6625 483.07 37.5637 480.009 36.2719C480.009 36.2719 474.963 40.7264 474.193 42.5527C474.193 42.5527 478.189 50.9462 475.714 55.3752C475.714 55.3752 474.193 43.9845 472.945 43.9209C472.945 43.9209 467.918 51.468 467.39 56.6479C467.39 56.6479 467.613 48.9481 471.724 43.2018C471.724 43.2018 466.862 44.0354 464.03 47.1917C464.03 47.1917 464.813 41.8527 472.939 41.3882C472.939 41.3882 477.094 35.661 478.208 35.3174C478.208 35.3174 470.095 34.6365 465.176 36.8192C465.176 36.8192 469.503 31.7857 479.691 34.0702L485.418 29.4248C485.418 29.4248 474.74 27.9612 470.209 29.5775C470.209 29.5775 475.421 25.1231 486.952 28.3684L493.156 24.6585C493.156 24.6585 484.05 22.6985 478.622 23.3858C478.622 23.3858 484.349 20.2995 494.97 23.6467L499.424 21.6549C499.424 21.6549 492.749 20.344 490.795 20.1404C488.841 19.9368 488.74 19.3895 488.74 19.3895C492.979 18.7003 497.326 19.2049 501.295 20.8468C501.295 20.8468 510.7 17.315 510.541 16.7232Z"
      fill="#6C63FF"
    />
    <path
      d="M455.586 0.0316929C455.586 0.0316929 431.404 -1.43192 434.23 15.5332C434.23 15.5332 433.663 18.5304 436.38 19.8922C436.38 19.8922 436.419 18.6195 438.862 19.065C439.731 19.2079 440.612 19.2506 441.49 19.1923C442.679 19.1074 443.808 18.6409 444.71 17.8623C444.71 17.8623 451.513 15.0496 454.16 3.92617C454.16 3.92617 456.12 1.50167 456.069 0.878042L451.984 2.62165C451.984 2.62165 453.384 5.56795 452.283 8.01791C452.283 8.01791 452.149 2.72983 451.367 2.8571C451.207 2.8571 449.241 3.87526 449.241 3.87526C449.241 3.87526 451.647 9.01062 449.833 12.7396C449.833 12.7396 450.52 6.41431 448.497 4.24435L445.62 5.92431C445.62 5.92431 448.427 11.2315 446.524 15.5587C446.524 15.5587 447.008 8.92153 445.016 6.33794L442.407 8.3679C442.407 8.3679 445.041 13.5924 443.438 17.1814C443.438 17.1814 443.228 9.45607 441.84 8.87062C441.84 8.87062 439.562 10.8815 439.212 11.7088C439.212 11.7088 441.019 15.5269 439.899 17.5059C439.899 17.5059 439.212 12.3578 438.627 12.3387C438.627 12.3387 436.355 15.7432 436.12 18.0659C436.229 15.9044 436.903 13.8092 438.073 11.9887C436.764 12.2365 435.556 12.8626 434.599 13.7896C434.599 13.7896 434.949 11.3779 438.633 11.1679C438.633 11.1679 440.51 8.58427 441.013 8.42518C441.013 8.42518 437.348 8.11973 435.127 9.10607C435.127 9.10607 437.08 6.82793 441.688 7.83337L444.233 5.73977C444.233 5.73977 439.41 5.10342 437.36 5.80341C437.36 5.80341 439.715 3.79253 444.927 5.26251L447.727 3.58254C447.727 3.58254 443.616 2.69801 441.159 3.01619C441.159 3.01619 443.749 1.62257 448.547 3.13709L450.552 2.23347C450.552 2.23347 447.536 1.64166 446.658 1.55257C445.779 1.46348 445.722 1.21531 445.722 1.21531C447.632 0.897521 449.593 1.11787 451.386 1.85166C451.386 1.85166 455.656 0.298961 455.586 0.0316929Z"
      fill="#6C63FF"
    />
    <path
      d="M445.939 317.364C443.415 308.07 438.025 299.892 430.711 293.644C427.888 291.227 424.808 288.94 421.443 286.809C418.591 284.993 414.998 287.667 415.825 290.956L417.85 298.991C420.416 309.2 409.495 317.478 400.398 312.231L375.945 298.133C359.876 288.868 340.114 288.868 324.046 298.133L299.593 312.231C290.496 317.478 279.574 309.185 282.141 298.991L284.222 290.727C285.049 287.453 281.471 284.779 278.619 286.581C274.883 288.925 271.49 291.47 268.41 294.144C261.21 300.407 256.205 308.814 253.867 318.079L253.781 318.422C247.836 342.099 257.075 366.991 277.008 381.017L338.746 424.44C345.504 429.187 354.501 429.187 361.259 424.44L422.997 381.017C443.23 366.791 452.44 341.355 445.939 317.378V317.364Z"
      fill="#808080"
    />
    <path
      d="M443.948 265.321C438.534 220.191 416.351 174.974 394.897 140.333L426.776 108.521C433.994 101.319 428.882 89 418.671 89H350.014C344.715 89 339.402 91.3294 335.822 95.974C311.648 127.371 264.316 196.453 256.052 265.321C255.308 271.595 262.683 275.439 267.409 271.238C283.907 256.575 309.643 246.086 350 246.086C390.357 246.086 416.078 256.589 432.591 271.238C437.317 275.439 444.692 271.581 443.948 265.321Z"
      fill="black"
    />
    </g>
    <defs>
    <clipPath id="clip0_5250_28087">
    <rect width="700" height="516.342" fill="white" />
    </clipPath>
    </defs>
</svg>
