<svg
  width="18"
  height="18"
  viewBox="0 0 18 18"
  fill="none"
  xmlns="http://www.w3.org/2000/svg"
>
  <path
    d="M15.2477 3.17085C14.0825 2.6257 12.8367 2.2295 11.5342 2.00391C11.3742 2.29311 11.1873 2.68211 11.0585 2.99155C9.67387 2.78332 8.30201 2.78332 6.94287 2.99155C6.81404 2.68211 6.62292 2.29311 6.46152 2.00391C5.15761 2.2295 3.91032 2.62716 2.74514 3.17374C0.394982 6.72514 -0.242108 10.1883 0.0764375 13.6024C1.63519 14.7664 3.14581 15.4735 4.63093 15.9362C4.99762 15.4316 5.32465 14.8951 5.60638 14.3297C5.06981 14.1258 4.5559 13.8742 4.07031 13.5821C4.19913 13.4867 4.32514 13.3869 4.44689 13.2842C7.40865 14.6695 10.6267 14.6695 13.5531 13.2842C13.6762 13.3869 13.8022 13.4867 13.9296 13.5821C13.4426 13.8756 12.9273 14.1273 12.3907 14.3312C12.6724 14.8951 12.9981 15.433 13.3662 15.9377C14.8527 15.4749 16.3647 14.7678 17.9235 13.6024C18.2973 9.64464 17.285 6.21325 15.2477 3.17085ZM6.00988 11.5028C5.12079 11.5028 4.39166 10.6727 4.39166 9.66198C4.39166 8.65122 5.10522 7.81977 6.00988 7.81977C6.91457 7.81977 7.64367 8.64977 7.6281 9.66198C7.62951 10.6727 6.91457 11.5028 6.00988 11.5028ZM11.9901 11.5028C11.101 11.5028 10.3718 10.6727 10.3718 9.66198C10.3718 8.65122 11.0854 7.81977 11.9901 7.81977C12.8947 7.81977 13.6238 8.64977 13.6083 9.66198C13.6083 10.6727 12.8947 11.5028 11.9901 11.5028Z"
    fill='current'
  />
  </svg>
