<svg
  width="17"
  height="14"
  viewBox="0 0 17 14"
  fill="none"
  xmlns="http://www.w3.org/2000/svg">
  <g clip-path="url(#clip0_2172_18217)">
    <path
      d="M15.2161 3.5187C15.2264 3.66762 15.2264 3.81655 15.2264 3.96684C15.2264 8.54635 11.7441 13.8279 5.37664 13.8279V13.8252C3.49568 13.8279 1.65378 13.2885 0.0703125 12.2714C0.343821 12.3044 0.6187 12.3209 0.894264 12.3215C2.45305 12.3229 3.96729 11.7993 5.19362 10.8351C3.71229 10.8069 2.4133 9.83998 1.95951 8.42831C2.47842 8.52851 3.01309 8.50792 3.52241 8.3686C1.90741 8.04194 0.745514 6.62135 0.745514 4.97155C0.745514 4.95645 0.745514 4.94204 0.745514 4.92762C1.22672 5.19596 1.76551 5.34488 2.31664 5.36135C0.795554 4.34361 0.326683 2.31772 1.24523 0.733801C3.00281 2.899 5.596 4.21527 8.37975 4.35459C8.10076 3.15086 8.48188 1.88949 9.38124 1.04331C10.7755 -0.268846 12.9684 -0.201591 14.279 1.19361C15.0543 1.04057 15.7974 0.755762 16.4774 0.352233C16.2189 1.15449 15.6781 1.83596 14.9556 2.269C15.6418 2.18802 16.3122 2.0041 16.9435 1.72341C16.4787 2.42066 15.8933 3.02802 15.2161 3.5187Z"
      fill='current'
    />
  </g>
  <defs>
    <clipPath id="clip0_2172_18217">
      <rect
        width="17"
        height="14"
        fill='current'
      />
    </clipPath>
  </defs>
</svg>