<svg viewBox="0 0 40 40" fill="none" xmlns="http://www.w3.org/2000/svg">
<ellipse cx="20" cy="20" rx="20" ry="20" fill="#596782"/>
<path d="M17.9429 24.4647V24.2657C17.9567 22.9669 18.0845 21.9333 18.3264 21.1652C18.5751 20.3971 18.9274 19.7756 19.3834 19.3007C19.8394 18.8259 20.3886 18.3929 21.0311 18.0019C21.4457 17.7365 21.8187 17.4397 22.1504 17.1115C22.482 16.7833 22.7445 16.4062 22.938 15.9802C23.1314 15.5543 23.2281 15.0829 23.2281 14.5662C23.2281 13.9447 23.083 13.407 22.7929 12.9531C22.5027 12.4992 22.1158 12.15 21.6322 11.9056C21.1555 11.6542 20.6235 11.5285 20.0363 11.5285C19.5043 11.5285 18.9965 11.6402 18.5129 11.8637C18.0293 12.0872 17.6286 12.4363 17.3108 12.9112C16.993 13.379 16.8099 13.9831 16.7615 14.7233H13.6111C13.6595 13.4663 13.9738 12.4049 14.5542 11.539C15.1345 10.6661 15.9014 10.0062 16.8548 9.55926C17.8151 9.11234 18.8756 8.88889 20.0363 8.88889C21.3075 8.88889 22.4198 9.1298 23.3732 9.61164C24.3266 10.0865 25.0659 10.7534 25.5909 11.6123C26.1229 12.4642 26.3889 13.4593 26.3889 14.5976C26.3889 15.3797 26.268 16.085 26.0262 16.7135C25.7844 17.335 25.4389 17.8901 24.9899 18.3789C24.5477 18.8678 24.0157 19.3007 23.3939 19.6778C22.8067 20.0479 22.33 20.432 21.9638 20.83C21.6046 21.2281 21.342 21.6994 21.1762 22.2441C21.0104 22.7888 20.9206 23.4627 20.9068 24.2657V24.4647H17.9429ZM19.5078 30.8333C18.9412 30.8333 18.4542 30.6308 18.0465 30.2258C17.6389 29.8138 17.4351 29.318 17.4351 28.7384C17.4351 28.1658 17.6389 27.677 18.0465 27.2719C18.4542 26.8599 18.9412 26.6539 19.5078 26.6539C20.0674 26.6539 20.551 26.8599 20.9586 27.2719C21.3731 27.677 21.5804 28.1658 21.5804 28.7384C21.5804 29.1225 21.4837 29.4751 21.2902 29.7963C21.1037 30.1106 20.855 30.362 20.5441 30.5505C20.2332 30.7391 19.8877 30.8333 19.5078 30.8333Z" fill="#90A2C0"/>
</svg>
