<svg width="20" height="20" viewBox="0 0 20 20" fill="none" xmlns="http://www.w3.org/2000/svg">
<circle cx="10" cy="10" r="10" fill="current"/>
<path d="M8.86431 12.6323C8.68815 12.5821 8.49824 12.622 8.36475 12.7479L8.34961 12.7624C9.57718 13.3053 11.0669 13.0748 12.0715 12.0702C13.0755 11.0662 13.306 9.57718 12.7644 8.34961L12.75 8.36475C12.6241 8.49824 12.5842 8.68747 12.6344 8.86362C12.9282 9.8937 12.6702 11.049 11.861 11.8589C11.0511 12.6688 9.89439 12.9262 8.86431 12.6323Z" fill="current"/>
<path d="M13.4581 9.00765C13.7926 10.2627 13.432 11.61 12.5175 12.5252C11.5996 13.4438 10.2475 13.803 8.98894 13.4631C8.52929 13.3385 8.05175 13.4363 7.69531 13.7225C9.42794 14.7567 11.6168 14.4884 13.0487 13.0564C14.48 11.6252 14.749 9.43702 13.7162 7.70508C13.4313 8.06427 13.3343 8.54387 13.4581 9.00765Z" fill="current"/>
<path d="M12.396 7.9185C13.5169 6.74461 15.1938 4.97688 16.2507 3.75C16.005 3.98671 15.5825 4.33076 15.1422 4.67343C14.3185 5.31405 12.9175 5.70902 11.9872 5.23561C10.1025 4.27571 7.73271 4.58329 6.15834 6.15766C4.58329 7.73203 4.27571 10.1018 5.2356 11.9865C5.70902 12.9162 5.31405 14.3178 4.67343 15.1415C4.33144 15.5812 3.98739 16.0043 3.75 16.25L4.43122 15.6231L4.82481 15.2701C7.37972 12.9802 10.0131 10.3888 12.3953 7.91919L12.396 7.9185ZM7.93364 6.08128C9.27474 5.38836 10.8815 5.57346 12.0774 6.45148C12.3216 6.69644 12.3216 7.0921 12.0774 7.33637L12.0739 7.33981C10.7693 6.03518 8.64651 6.03518 7.34119 7.33981C6.03655 8.64445 6.03655 10.7672 7.34119 12.0726L7.32054 12.0932C7.07696 12.3196 6.69919 12.3168 6.45973 12.0843C5.06289 10.1782 5.55419 7.3116 7.93433 6.08197L7.93364 6.08128ZM8.06782 11.8634C7.92607 12.0058 7.69625 12.0058 7.5545 11.8641L7.55174 11.8613C6.3634 10.673 6.3634 8.73872 7.55174 7.55037C8.74009 6.36202 10.6743 6.36202 11.8627 7.55037L11.8654 7.55312C12.0086 7.69625 12.0017 7.9302 11.8586 8.07264C10.6152 9.30777 9.30364 10.62 8.06782 11.8634Z" fill="current"/>
</svg>
