<svg preserveAspectRatio="none" overflow="visible" style="display: block;" width="11.2" height="12.45" viewBox="0 0 11.2 12.45" fill="none" xmlns="http://www.w3.org/2000/svg">
<g id="Group">
<path id="Vector" d="M9.35 5.6H1.85C1.15964 5.6 0.6 6.15964 0.6 6.85V10.6C0.6 11.2904 1.15964 11.85 1.85 11.85H9.35C10.0404 11.85 10.6 11.2904 10.6 10.6V6.85C10.6 6.15964 10.0404 5.6 9.35 5.6Z" stroke="#A0A0A0" stroke-width="1.2" stroke-linecap="round" stroke-linejoin="round"/>
<path id="Vector_2" d="M3.1 5.6V3.1C3.1 2.43696 3.36339 1.80107 3.83223 1.33223C4.30107 0.863392 4.93696 0.6 5.6 0.6C6.26304 0.6 6.89893 0.863392 7.36777 1.33223C7.83661 1.80107 8.1 2.43696 8.1 3.1V5.6" stroke="#A0A0A0" stroke-width="1.2" stroke-linecap="round" stroke-linejoin="round"/>
</g>
</svg>
