<svg
  width="14"
  height="14"
  viewBox="0 0 14 14"
  fill="none"
  xmlns="http://www.w3.org/2000/svg"
>
  <path
    d="M5.5896 0.144949C5.83682 0.0936902 6.08404 0.0572395 6.32784 0.0333188C6.57847 0.00939809 6.82683 -0.00199273 7.07176 0.000285433C7.20961 0.00142452 7.32012 0.114194 7.31898 0.252023C7.31784 0.357957 7.25063 0.447945 7.15721 0.483256C6.1148 0.893326 5.28087 1.65765 4.76935 2.60423C4.2658 3.53486 4.07441 4.64091 4.3034 5.75721L4.30453 5.76518C4.56542 7.025 5.31049 8.06043 6.30733 8.71654C7.30303 9.37265 8.54823 9.64831 9.80823 9.39088L9.81621 9.38974C10.7231 9.20179 11.5125 8.76438 12.1289 8.16181C12.7669 7.53873 13.218 6.74023 13.4196 5.86542C13.4504 5.73101 13.5848 5.64785 13.7181 5.67861C13.8195 5.70253 13.8924 5.78454 13.9084 5.88137C14.2091 7.72668 13.7546 9.5344 12.7623 10.9742C11.7746 12.4072 10.2525 13.4768 8.41266 13.8549C6.51923 14.2445 4.64745 13.8299 3.15162 12.8457C1.65465 11.8581 0.534767 10.3033 0.145144 8.41013C-0.235364 6.5614 0.150841 4.73317 1.08616 3.25578C2.02604 1.77384 3.51845 0.642728 5.34467 0.199625C5.37998 0.190512 5.421 0.181399 5.46543 0.171148H5.46657L5.5896 0.144949Z"
    fill="white"
  />
</svg>