<svg width="143" height="35" viewBox="0 0 143 35" fill="none" xmlns="http://www.w3.org/2000/svg">
    <path
    d="M9.85698 26.0569L11.7312 23.1083C13.0132 24.4691 14.7229 25.0191 16.6945 25.0191C18.6662 25.0191 21.0998 24.1772 21.0998 21.0015V19.4785C19.8508 21.0339 18.141 21.9082 16.1694 21.9082C12.2248 21.9082 9.1687 19.1866 9.1687 13.9703C9.1687 8.75408 12.1604 6 16.1694 6C18.0766 6 19.8179 6.77703 21.0998 8.39732V6.38919H25.2747V21.0001C25.2747 26.9286 20.6076 28.3867 16.6959 28.3867C14.0004 28.3867 11.8642 27.7718 9.85835 26.0542L9.85698 26.0569ZM21.0984 16.4987V11.4122C20.3745 10.4081 18.8636 9.66219 17.5158 9.66219C15.1164 9.66219 13.4725 11.2825 13.4725 13.9717C13.4725 16.6609 15.1164 18.2812 17.5158 18.2812C18.8636 18.2812 20.3759 17.5042 21.0984 16.4987Z"
    fill="white"
  />
    <path
    d="M38.1753 22.0394V12.5799C38.1753 10.4096 37.025 9.66366 35.2494 9.66366C33.6055 9.66366 32.3565 10.5704 31.6339 11.4785V22.0408H27.459V6.39066H31.6339V8.39878C32.6526 7.23256 34.6256 6.00146 37.1895 6.00146C40.7063 6.00146 42.3832 7.94472 42.3832 10.9907V22.0381H38.1753V22.0394Z"
    fill="white"
  />
    <path
    d="M43.8557 14.1987C43.8557 9.76083 47.0106 6.00269 52.2371 6.00269C57.4637 6.00269 60.6514 9.76083 60.6514 14.1987C60.6514 18.6366 57.4966 22.4271 52.2371 22.4271C46.9777 22.4271 43.8557 18.6366 43.8557 14.1987ZM56.3133 14.1987C56.3133 11.769 54.8668 9.66353 52.2371 9.66353C49.6074 9.66353 48.1938 11.769 48.1938 14.1987C48.1938 16.6285 49.6403 18.7663 52.2371 18.7663C54.8339 18.7663 56.3133 16.6609 56.3133 14.1987Z"
    fill="white"
  />
    <path
    d="M78.0879 14.5911C76.9128 14.0249 75.2046 13.6537 72.8648 13.4525C69.1568 13.1642 66.6869 12.6084 66.6869 10.8331C66.6869 10.3063 66.8988 9.83134 67.3143 9.42276C68.4286 8.33184 70.7181 7.96475 72.336 7.98134C74.8437 8.00622 76.8582 8.73627 78.3209 10.1549L78.3649 10.1984L79.3428 9.23195L79.2946 9.1884C77.6032 7.63706 75.0871 6.74731 72.3885 6.74731C70.4243 6.74731 68.6385 7.12271 67.3605 7.80505C65.965 8.55168 65.2263 9.61564 65.2263 10.8849C65.2263 13.7242 68.8693 14.4128 72.4346 14.7135C76.3966 15.0785 78.6923 15.6634 78.6923 17.5652C78.6923 19.4671 76.3819 20.6741 72.8061 20.6741C69.801 20.6741 67.4109 19.7533 65.7027 17.9344L65.6607 17.8909L64.6514 18.7474L64.6975 18.7951C66.6113 20.8193 69.4821 21.9351 72.7809 21.9351C77.259 21.9351 80.1507 20.1785 80.1507 17.4615C80.1507 16.1985 79.475 15.259 78.0858 14.5911H78.0879Z"
    fill="url(#paint0_linear_5208_29868)"
  />
    <path
    d="M96.9806 17.8432C95.9524 19.5936 93.7846 20.5974 91.0335 20.5974C86.612 20.5974 83.9742 18.258 83.9742 14.3423C83.9742 10.4266 86.6141 8.06015 91.0335 8.06015C93.728 8.06015 95.8768 9.037 96.9282 10.7377L96.9596 10.7874L98.3279 10.0823L98.288 10.0242C96.8128 7.87971 94.2946 6.74731 91.0063 6.74731C85.7517 6.74731 82.4885 9.65712 82.4885 14.3402C82.4885 19.0233 85.7517 21.9331 91.0063 21.9331C94.3827 21.9331 96.9282 20.7467 98.3677 18.4985L98.4055 18.4384L97.0079 17.7913L96.9785 17.8411L96.9806 17.8432Z"
    fill="url(#paint1_linear_5208_29868)"
  />
    <path
    d="M116.251 18.5711V13.5936C116.251 11.3765 115.573 9.65505 114.234 8.47287C112.938 7.32803 111.093 6.74731 108.751 6.74731C106.266 6.74731 103.652 7.49188 101.929 8.69272L101.879 8.72797L102.573 9.81267L102.628 9.77741C104.384 8.62013 106.382 8.03526 108.568 8.03526C112.682 8.03526 114.767 9.906 114.767 13.5956V14.8359C113.622 13.0336 111.028 11.8825 108.073 11.8825C106.262 11.8825 104.472 12.2828 103.167 12.9838C101.505 13.8735 100.626 15.2279 100.626 16.8974C100.626 18.567 101.505 19.9213 103.167 20.811C104.474 21.51 106.262 21.9123 108.073 21.9123C111.015 21.9123 113.611 20.7571 114.769 18.9548C114.786 19.9192 114.975 20.6659 115.376 21.3648L115.395 21.3959H116.979L116.923 21.3005C116.452 20.5186 116.253 19.7035 116.253 18.5732L116.251 18.5711ZM114.793 16.8787C114.793 17.2147 114.702 17.5466 114.52 17.8286C113.191 19.8964 110.43 20.6472 108.176 20.6472C105.364 20.6472 102.082 19.6641 102.082 16.8933C102.082 14.1224 105.366 13.1124 108.176 13.1124C110.986 13.1124 113.399 14.1597 114.528 15.9392C114.707 16.2192 114.793 16.5448 114.793 16.8767V16.8787Z"
    fill="url(#paint2_linear_5208_29868)"
  />
    <path
    d="M128.959 6.74731C125.902 6.74731 123.379 8.04356 122.003 10.3146V7.26374H120.544V21.3938H122.003V14.7342C122.003 11.0861 124.966 8.09541 128.657 8.06015C128.689 8.06015 128.72 8.06015 128.752 8.06015C132.313 8.06015 134.193 9.97444 134.193 13.5935V21.3938H135.651V13.5168C135.651 9.21536 133.213 6.74731 128.959 6.74731V6.74731Z"
    fill="url(#paint3_linear_5208_29868)"
  />
    <defs>
    <linearGradient
      id="paint0_linear_5208_29868"
      x1="139.263"
      y1="12.9485"
      x2="43.9131"
      y2="14.989"
      gradientUnits="userSpaceOnUse"
    >
    <stop stop-color="white" />
    <stop offset="1" />
    </linearGradient>
    <linearGradient
      id="paint1_linear_5208_29868"
      x1="139.271"
      y1="13.3322"
      x2="43.9216"
      y2="15.3727"
      gradientUnits="userSpaceOnUse"
    >
    <stop stop-color="white" />
    <stop offset="1" />
    </linearGradient>
    <linearGradient
      id="paint2_linear_5208_29868"
      x1="139.278"
      y1="13.6827"
      x2="43.9279"
      y2="15.7232"
      gradientUnits="userSpaceOnUse"
    >
    <stop stop-color="white" />
    <stop offset="1" />
    </linearGradient>
    <linearGradient
      id="paint3_linear_5208_29868"
      x1="139.284"
      y1="13.9233"
      x2="43.9341"
      y2="15.9637"
      gradientUnits="userSpaceOnUse"
    >
    <stop stop-color="white" />
    <stop offset="1" />
    </linearGradient>
    </defs>
</svg>
