<svg width="current" height="current" viewBox="0 0 18 18" fill="none" xmlns="http://www.w3.org/2000/svg">
<path d="M7.36617 12.7921C7.1125 12.7198 6.83903 12.7773 6.6468 12.9586L6.625 12.9794C8.3927 13.7612 10.5379 13.4292 11.9846 11.9826C13.4302 10.5369 13.7622 8.3927 12.9824 6.625L12.9616 6.6468C12.7802 6.83903 12.7228 7.11151 12.7951 7.36517C13.2182 8.84849 12.8466 10.5122 11.6814 11.6784C10.5151 12.8446 8.84949 13.2152 7.36617 12.7921Z" fill="current"/>
<path d="M13.9938 7.56711C14.4753 9.37444 13.9561 11.3145 12.6393 12.6324C11.3175 13.9552 9.37042 14.4724 7.55813 13.9829C6.89624 13.8036 6.20858 13.9443 5.69531 14.3565C8.1903 15.8458 11.3422 15.4593 13.4042 13.3973C15.4652 11.3363 15.8526 8.18541 14.3654 5.69141C13.9551 6.20864 13.8154 6.89927 13.9938 7.56711Z" fill="current"/>
<path d="M12.4502 6.00264C14.0643 4.31223 16.479 1.76671 18.001 0C17.6473 0.340857 17.0389 0.836288 16.4047 1.32974C15.2186 2.25223 13.2013 2.82098 11.8616 2.13927C9.14764 0.757019 5.73511 1.19993 3.46802 3.46703C1.19993 5.73412 0.757019 9.14665 2.13927 11.8606C2.82098 13.1993 2.25223 15.2177 1.32974 16.4037C0.837278 17.0369 0.341847 17.6463 0 18L0.980953 17.0973L1.54773 16.589C5.2268 13.2914 9.01883 9.55984 12.4492 6.00363L12.4502 6.00264ZM6.02444 3.35704C7.95563 2.35924 10.2693 2.62578 11.9914 3.89012C12.3432 4.24287 12.3432 4.81262 11.9914 5.16437L11.9865 5.16933C10.1078 3.29065 7.05097 3.29065 5.17131 5.16933C3.29263 7.048 3.29263 10.1048 5.17131 11.9845L5.14158 12.0142C4.79082 12.3402 4.24683 12.3362 3.90201 12.0013C1.89056 9.25663 2.59804 5.1287 6.02543 3.35803L6.02444 3.35704ZM6.21766 11.6833C6.01354 11.8884 5.68259 11.8884 5.47848 11.6842L5.47451 11.6803C3.76329 9.96906 3.76329 7.18375 5.47451 5.47253C7.18573 3.76131 9.97104 3.76131 11.6823 5.47253L11.6862 5.47649C11.8923 5.68259 11.8824 6.01949 11.6763 6.2246C9.88583 8.00319 7.99725 9.89277 6.21766 11.6833Z" fill="current"/>
</svg>
