<svg viewBox="0 0 44 44" fill="none" xmlns="http://www.w3.org/2000/svg">
    <path
    d="M31.7897 27.3131C31.5321 26.3314 30.9822 25.4674 30.2358 24.8074C29.9477 24.5522 29.6335 24.3105 29.2901 24.0855C28.9991 23.8937 28.6325 24.1761 28.7169 24.5235L28.9235 25.3723C29.1854 26.4507 28.0709 27.3251 27.1427 26.7709L24.6475 25.2817C23.0078 24.303 20.9913 24.303 19.3516 25.2817L16.8564 26.7709C15.9282 27.3251 14.8137 26.4492 15.0756 25.3723L15.288 24.4993C15.3724 24.1535 15.0072 23.871 14.7162 24.0613C14.335 24.309 13.9888 24.5779 13.6745 24.8603C12.9398 25.5218 12.4291 26.4099 12.1905 27.3886L12.1818 27.4248C11.5751 29.9259 12.5178 32.5554 14.5518 34.0371L20.8516 38.6239C21.5412 39.1254 22.4593 39.1254 23.1489 38.6239L29.4487 34.0371C31.5132 32.5343 32.4531 29.8474 31.7897 27.3146V27.3131Z"
    fill="#808080"
  />
    <path
    d="M31.9944 22.2071C31.4185 17.5468 29.0586 12.8778 26.7763 9.30068L30.1677 6.01579C30.9356 5.27205 30.3917 4 29.3054 4H22.0015C21.4378 4 20.8726 4.24054 20.4917 4.72014C17.92 7.96223 12.8846 15.0957 12.0056 22.2071C11.9263 22.8549 12.711 23.2519 13.2137 22.818C14.9689 21.304 17.7067 20.2208 22 20.2208C26.2933 20.2208 29.0296 21.3054 30.7863 22.818C31.289 23.2519 32.0737 22.8534 31.9944 22.2071Z"
    fill="white"
  />
</svg>
