<svg width="143" height="35" viewBox="0 0 143 35" fill="none" xmlns="http://www.w3.org/2000/svg">
    <path
    d="M9.85698 26.0569L11.7312 23.1083C13.0132 24.4691 14.7229 25.0191 16.6945 25.0191C18.6662 25.0191 21.0998 24.1772 21.0998 21.0015V19.4785C19.8508 21.0339 18.141 21.9082 16.1694 21.9082C12.2248 21.9082 9.1687 19.1866 9.1687 13.9703C9.1687 8.75408 12.1604 6 16.1694 6C18.0766 6 19.8179 6.77703 21.0998 8.39732V6.38919H25.2747V21.0001C25.2747 26.9286 20.6076 28.3867 16.6959 28.3867C14.0004 28.3867 11.8642 27.7718 9.85835 26.0542L9.85698 26.0569ZM21.0984 16.4987V11.4122C20.3745 10.4081 18.8636 9.66219 17.5158 9.66219C15.1164 9.66219 13.4725 11.2825 13.4725 13.9717C13.4725 16.6609 15.1164 18.2812 17.5158 18.2812C18.8636 18.2812 20.3759 17.5042 21.0984 16.4987Z"
    fill="#2D2D2D"
  />
    <path
    d="M38.1753 22.0394V12.5799C38.1753 10.4096 37.025 9.66366 35.2494 9.66366C33.6055 9.66366 32.3565 10.5704 31.6339 11.4785V22.0408H27.459V6.39066H31.6339V8.39878C32.6526 7.23256 34.6256 6.00146 37.1895 6.00146C40.7063 6.00146 42.3832 7.94472 42.3832 10.9907V22.0381H38.1753V22.0394Z"
    fill="#2D2D2D"
  />
    <path
    d="M43.8557 14.1987C43.8557 9.76083 47.0106 6.00269 52.2371 6.00269C57.4637 6.00269 60.6514 9.76083 60.6514 14.1987C60.6514 18.6366 57.4966 22.4271 52.2371 22.4271C46.9777 22.4271 43.8557 18.6366 43.8557 14.1987ZM56.3133 14.1987C56.3133 11.769 54.8668 9.66353 52.2371 9.66353C49.6074 9.66353 48.1938 11.769 48.1938 14.1987C48.1938 16.6285 49.6403 18.7663 52.2371 18.7663C54.8339 18.7663 56.3133 16.6609 56.3133 14.1987Z"
    fill="#2D2D2D"
  />
    <path
    d="M78.1061 14.5938C76.9292 14.0276 75.2186 13.6564 72.8754 13.4552C69.1619 13.1669 66.6884 12.6111 66.6884 10.8358C66.6884 10.309 66.9007 9.83402 67.3168 9.42544C68.4327 8.33453 70.7255 7.96743 72.3458 7.98402C74.8571 8.00891 76.8746 8.73896 78.3394 10.1576L78.3835 10.2011L79.3628 9.23464L79.3145 9.19108C77.6207 7.63974 75.1009 6.75 72.3983 6.75C70.4313 6.75 68.6428 7.12539 67.363 7.80773C65.9655 8.55437 65.2257 9.61833 65.2257 10.8876C65.2257 13.7269 68.874 14.4155 72.4445 14.7162C76.4123 15.0812 78.7114 15.6661 78.7114 17.5679C78.7114 19.4698 76.3976 20.6768 72.8165 20.6768C69.8071 20.6768 67.4134 19.756 65.7028 17.9371L65.6607 17.8935L64.6499 18.7501L64.6961 18.7978C66.6127 20.822 69.4877 21.9378 72.7913 21.9378C77.276 21.9378 80.1719 20.1812 80.1719 17.4642C80.1719 16.2012 79.4952 15.2616 78.104 14.5938H78.1061Z"
    fill="url(#paint0_linear_5218_19893)"
  />
    <path
    d="M97.0265 17.8458C95.9967 19.5963 93.8258 20.6001 91.0707 20.6001C86.6427 20.6001 84.0011 18.2606 84.0011 14.3449C84.0011 10.4293 86.6448 8.06283 91.0707 8.06283C93.7691 8.06283 95.9211 9.03968 96.9739 10.7404L97.0055 10.7901L98.3757 10.085L98.3357 10.0269C96.8584 7.8824 94.3365 6.75 91.0434 6.75C85.7811 6.75 82.5132 9.65981 82.5132 14.3429C82.5132 19.0259 85.7811 21.9357 91.0434 21.9357C94.4248 21.9357 96.9739 20.7494 98.4156 18.5012L98.4534 18.4411L97.0538 17.794L97.0244 17.8438L97.0265 17.8458Z"
    fill="url(#paint1_linear_5218_19893)"
  />
    <path
    d="M116.325 18.5738V13.5962C116.325 11.3791 115.646 9.65773 114.305 8.47556C113.007 7.33072 111.159 6.75 108.814 6.75C106.326 6.75 103.707 7.49456 101.982 8.6954L101.931 8.73066L102.627 9.81535L102.682 9.7801C104.441 8.62281 106.441 8.03795 108.631 8.03795C112.75 8.03795 114.839 9.90868 114.839 13.5983V14.8386C113.692 13.0363 111.094 11.8852 108.135 11.8852C106.322 11.8852 104.529 12.2855 103.222 12.9865C101.557 13.8762 100.677 15.2305 100.677 16.9001C100.677 18.5697 101.557 19.924 103.222 20.8137C104.531 21.5127 106.322 21.915 108.135 21.915C111.082 21.915 113.681 20.7598 114.841 18.9575C114.858 19.9219 115.047 20.6685 115.449 21.3675L115.467 21.3986H117.054L116.997 21.3032C116.527 20.5213 116.327 19.7062 116.327 18.5759L116.325 18.5738ZM114.864 16.8814C114.864 17.2174 114.774 17.5493 114.591 17.8313C113.261 19.8991 110.495 20.6499 108.238 20.6499C105.422 20.6499 102.135 19.6668 102.135 16.896C102.135 14.1251 105.424 13.1151 108.238 13.1151C111.052 13.1151 113.469 14.1624 114.6 15.9419C114.778 16.2219 114.864 16.5475 114.864 16.8794V16.8814Z"
    fill="url(#paint2_linear_5218_19893)"
  />
    <path
    d="M129.052 6.75C125.99 6.75 123.464 8.04624 122.085 10.3173V7.26642H120.625V21.3965H122.085V14.7369C122.085 11.0888 125.052 8.09809 128.749 8.06283C128.781 8.06283 128.812 8.06283 128.844 8.06283C132.41 8.06283 134.293 9.97713 134.293 13.5962V21.3965H135.754V13.5195C135.754 9.21804 133.312 6.75 129.052 6.75Z"
    fill="url(#paint3_linear_5218_19893)"
  />
    <defs>
    <linearGradient
      id="paint0_linear_5218_19893"
      x1="139.37"
      y1="12.9512"
      x2="43.8815"
      y2="14.9976"
      gradientUnits="userSpaceOnUse"
    >
    <stop stop-opacity="0.3" />
    <stop offset="1" />
    </linearGradient>
    <linearGradient
      id="paint1_linear_5218_19893"
      x1="139.379"
      y1="13.3349"
      x2="43.89"
      y2="15.3813"
      gradientUnits="userSpaceOnUse"
    >
    <stop stop-opacity="0.3" />
    <stop offset="1" />
    </linearGradient>
    <linearGradient
      id="paint2_linear_5218_19893"
      x1="139.385"
      y1="13.6854"
      x2="43.8962"
      y2="15.7318"
      gradientUnits="userSpaceOnUse"
    >
    <stop stop-opacity="0.3" />
    <stop offset="1" />
    </linearGradient>
    <linearGradient
      id="paint3_linear_5218_19893"
      x1="139.391"
      y1="13.926"
      x2="43.9023"
      y2="15.9724"
      gradientUnits="userSpaceOnUse"
    >
    <stop stop-opacity="0.3" />
    <stop offset="1" />
    </linearGradient>
    </defs>
</svg>
