<svg width="145" height="32" viewBox="0 0 145 32" fill="none" xmlns="http://www.w3.org/2000/svg">
<g clip-path="url(#clip0_2236_22484)">
<path d="M86.5976 16.3805C85.4053 15.7992 83.6722 15.4181 81.2982 15.2116C77.5361 14.9156 75.0301 14.345 75.0301 12.5225C75.0301 11.9817 75.2451 11.4941 75.6667 11.0747C76.7973 9.95478 79.1202 9.57792 80.7617 9.59496C83.306 9.6205 85.35 10.37 86.834 11.8263L86.8787 11.871L87.8709 10.8788L87.8219 10.8341C86.1058 9.24152 83.553 8.32812 80.8149 8.32812C78.8221 8.32812 77.0102 8.7135 75.7135 9.41398C74.2977 10.1805 73.5482 11.2727 73.5482 12.5757C73.5482 15.4905 77.2444 16.1974 80.8618 16.5061C84.8816 16.8808 87.2108 17.4812 87.2108 19.4337C87.2108 21.3861 84.8667 22.6252 81.2386 22.6252C78.1897 22.6252 75.7646 21.6799 74.0315 19.8126L73.989 19.7679L72.9648 20.6473L73.0117 20.6962C74.9534 22.7743 77.8661 23.9197 81.2131 23.9197C85.7566 23.9197 88.6906 22.1164 88.6906 19.3272C88.6906 18.0306 88.005 17.0661 86.5955 16.3805H86.5976Z" fill="url(#paint0_linear_2236_22484)"/>
<path d="M105.766 19.719C104.723 21.5159 102.524 22.5464 99.7323 22.5464C95.2462 22.5464 92.5699 20.1448 92.5699 16.125C92.5699 12.1052 95.2484 9.67586 99.7323 9.67586C102.466 9.67586 104.646 10.6787 105.713 12.4246L105.745 12.4757L107.133 11.7518L107.093 11.6921C105.596 9.49063 103.041 8.32812 99.7046 8.32812C94.3733 8.32812 91.0625 11.3153 91.0625 16.1229C91.0625 20.9304 94.3733 23.9176 99.7046 23.9176C103.13 23.9176 105.713 22.6997 107.174 20.3918L107.212 20.33L105.794 19.6657L105.764 19.7168L105.766 19.719Z" fill="url(#paint1_linear_2236_22484)"/>
<path d="M125.318 20.4663V15.3564C125.318 13.0803 124.631 11.3132 123.272 10.0996C121.956 8.92428 120.085 8.32812 117.709 8.32812C115.188 8.32812 112.535 9.09248 110.787 10.3252L110.736 10.3614L111.441 11.475L111.496 11.4388C113.278 10.2507 115.305 9.65031 117.524 9.65031C121.697 9.65031 123.813 11.5708 123.813 15.3585V16.6317C122.651 14.7815 120.019 13.5998 117.021 13.5998C115.184 13.5998 113.368 14.0108 112.043 14.7304C110.357 15.6438 109.465 17.0341 109.465 18.7481C109.465 20.462 110.357 21.8523 112.043 22.7657C113.37 23.4833 115.184 23.8963 117.021 23.8963C120.006 23.8963 122.64 22.7104 123.815 20.8602C123.832 21.8502 124.024 22.6167 124.43 23.3342L124.45 23.3662H126.057L126 23.2682C125.523 22.4655 125.32 21.6288 125.32 20.4684L125.318 20.4663ZM123.839 18.7289C123.839 19.0738 123.747 19.4145 123.562 19.7041C122.214 21.8268 119.412 22.5975 117.125 22.5975C114.272 22.5975 110.942 21.5883 110.942 18.7438C110.942 15.8993 114.275 14.8624 117.125 14.8624C119.976 14.8624 122.425 15.9376 123.57 17.7644C123.751 18.0519 123.839 18.3861 123.839 18.7268V18.7289Z" fill="url(#paint2_linear_2236_22484)"/>
<path d="M138.214 8.32812C135.111 8.32812 132.552 9.65883 131.156 11.9902V8.85828H129.676V23.364H131.156V16.5274C131.156 12.7823 134.162 9.71206 137.907 9.67586C137.939 9.67586 137.971 9.67586 138.003 9.67586C141.616 9.67586 143.524 11.641 143.524 15.3564V23.364H145.003V15.2776C145.003 10.8618 142.529 8.32812 138.214 8.32812Z" fill="url(#paint3_linear_2236_22484)"/>
<path d="M15.1445 11.3484C13.7904 9.28951 11.2695 7.96094 8.0183 7.96094C3.08936 7.96094 0 11.1312 0 15.8983C0 20.6654 3.08936 23.8102 8.02042 23.8102C11.0012 23.8102 13.7904 22.4816 15.1466 20.4227V21.9131C15.1466 25.49 12.7343 27.2508 8.40154 27.2508C5.96369 27.2508 3.98573 26.4652 2.57624 25.5433L1.5202 27.2508C3.11917 28.4155 5.99137 29.2288 8.61871 29.2288C13.388 29.2288 17.3694 26.9528 17.3694 21.6427V8.50174H15.1487V11.3463L15.1445 11.3484ZM15.1445 16.5733C15.1445 17.8976 14.6484 19.2049 13.6626 20.0906C12.2787 21.3361 10.5434 21.8343 8.58677 21.8343C4.52227 21.8343 2.24623 19.6946 2.24623 15.9005C2.24623 12.1063 4.52227 9.9389 8.58677 9.9389C10.4008 9.9389 12.0232 10.3669 13.3539 11.4229C14.5057 12.3363 15.1424 13.7543 15.1424 15.2234V16.5733H15.1445Z" fill="white"/>
<path d="M30.6878 7.96094C27.5176 7.96094 25.0265 9.34274 23.6426 11.5634V8.50174H21.4219V23.2672H23.6426V15.2809C23.6426 14.2717 23.9662 13.2774 24.6028 12.4939C26.0016 10.7714 27.9817 9.93464 30.2705 9.9389C33.0043 9.94316 35.2378 12.3533 35.2378 15.0871V23.2694H37.4585V14.9253C37.4585 10.8885 35.2633 7.96307 30.6857 7.96307L30.6878 7.96094Z" fill="white"/>
<path d="M50.9241 22.6739C50.477 22.5462 49.9979 22.6484 49.6594 22.9656L49.6211 23.0018C52.7296 24.3751 56.5024 23.7938 59.0467 21.2495C61.5889 18.7073 62.1744 14.9367 60.8011 11.8281L60.765 11.8664C60.4456 12.205 60.3455 12.684 60.4711 13.1312C61.2142 15.7393 60.5627 18.6669 58.5123 20.7172C56.4599 22.7697 53.5323 23.4212 50.922 22.676L50.9241 22.6739Z" fill="white"/>
<path d="M62.5717 13.4816C63.4191 16.6583 62.5057 20.0734 60.1892 22.3899C57.8642 24.7149 54.4406 25.6262 51.2533 24.766C50.0887 24.4509 48.8793 24.6979 47.9766 25.4239C52.3626 28.0427 57.9068 27.3635 61.5327 23.7355C65.1565 20.1117 65.8378 14.5696 63.2232 10.1836C62.5015 11.0927 62.2566 12.3085 62.5696 13.4816H62.5717Z" fill="white"/>
<path d="M59.8661 10.7281C62.7043 7.75583 66.9519 3.27827 69.6282 0.171875C69.0065 0.772289 67.9355 1.6431 66.822 2.50966C64.7354 4.13205 61.1883 5.13274 58.8335 3.93191C54.06 1.50045 48.0601 2.27971 44.0723 6.26757C40.0844 10.2554 39.3051 16.2553 41.7366 21.0288C42.9353 23.3836 41.9367 26.9329 40.3143 29.0173C39.4478 30.1308 38.577 31.2018 37.9766 31.8235L39.7012 30.2352L40.6976 29.3409C47.168 23.5412 53.8364 16.9792 59.8704 10.7238L59.8661 10.7281ZM48.5647 6.07595C51.9607 4.32154 56.0316 4.78995 59.0571 7.01276C59.6766 7.63234 59.6745 8.63516 59.0571 9.2526L59.0485 9.26112C55.7441 5.95671 50.3681 5.95671 47.0637 9.26112C43.7593 12.5655 43.7593 17.9416 47.0637 21.246L47.0105 21.2992C46.3951 21.8719 45.437 21.8656 44.8302 21.2758C41.2916 16.4491 42.5372 9.18873 48.5647 6.07595ZM48.9032 20.718C48.5456 21.0778 47.9622 21.0799 47.6024 20.718L47.596 20.7116C44.5854 17.701 44.5854 12.804 47.596 9.79553C50.6065 6.78495 55.5035 6.78495 58.512 9.79553L58.5184 9.80192C58.8803 10.1639 58.8633 10.7579 58.5014 11.1177C55.3524 14.2454 52.0309 17.569 48.9032 20.7158V20.718Z" fill="white"/>
</g>
<defs>
<linearGradient id="paint0_linear_2236_22484" x1="148.666" y1="14.6942" x2="51.9227" y2="16.7403" gradientUnits="userSpaceOnUse">
<stop stop-color="white"/>
<stop offset="1"/>
</linearGradient>
<linearGradient id="paint1_linear_2236_22484" x1="148.675" y1="15.0881" x2="51.9313" y2="17.1342" gradientUnits="userSpaceOnUse">
<stop stop-color="white"/>
<stop offset="1"/>
</linearGradient>
<linearGradient id="paint2_linear_2236_22484" x1="148.681" y1="15.4479" x2="51.9379" y2="17.494" gradientUnits="userSpaceOnUse">
<stop stop-color="white"/>
<stop offset="1"/>
</linearGradient>
<linearGradient id="paint3_linear_2236_22484" x1="148.689" y1="15.6949" x2="51.9455" y2="17.741" gradientUnits="userSpaceOnUse">
<stop stop-color="white"/>
<stop offset="1"/>
</linearGradient>
<clipPath id="clip0_2236_22484">
<rect width="145" height="31.6537" fill="white" transform="translate(0 0.171875)"/>
</clipPath>
</defs>
</svg>
