<svg width="44" height="44" viewBox="0 0 44 44" fill="none" xmlns="http://www.w3.org/2000/svg">
  <g clip-path="url(#clip0_5277_3907)">
  <circle cx="22" cy="22" r="22" fill="black" />
  <path
      d="M30.8107 27.6505C30.5789 26.8651 30.084 26.174 29.4122 25.6459C29.153 25.4417 28.8701 25.2484 28.5611 25.0684C28.2992 24.9149 27.9692 25.1409 28.0452 25.4188L28.2311 26.0978C28.4668 26.9605 27.4638 27.6601 26.6284 27.2167L24.3827 26.0253C22.907 25.2424 21.0921 25.2424 19.6164 26.0253L17.3708 27.2167C16.5354 27.6601 15.5323 26.9593 15.768 26.0978L15.9592 25.3995C16.0352 25.1228 15.7065 24.8968 15.4446 25.0491C15.1015 25.2472 14.7899 25.4623 14.5071 25.6882C13.8458 26.2175 13.3862 26.9279 13.1714 27.7109L13.1636 27.7399C12.6176 29.7407 13.4661 31.8443 15.2966 33.0296L20.9664 36.6991C21.5871 37.1003 22.4134 37.1003 23.034 36.6991L28.7038 33.0296C30.5619 31.8274 31.4078 29.6779 30.8107 27.6517V27.6505Z"
      fill="#808080"
    />
  <path
      d="M29.9955 23.2905C29.5348 19.1209 27.6469 14.9433 25.821 11.7427L28.5342 8.80361C29.1485 8.13815 28.7133 7 27.8443 7H22.0012C21.5503 7 21.0981 7.21522 20.7934 7.64433C18.736 10.5452 14.7077 16.9278 14.0045 23.2905C13.9411 23.8702 14.5688 24.2254 14.971 23.8372C16.3751 22.4825 18.5653 21.5133 22 21.5133C25.4347 21.5133 27.6237 22.4838 29.029 23.8372C29.4312 24.2254 30.0589 23.8689 29.9955 23.2905Z"
      fill="white"
    />
  </g>
  <defs>
  <clipPath id="clip0_5277_3907">
  <rect width="44" height="44" fill="white" />
  </clipPath>
  </defs>
  </svg>
